<?xml version="1.0" encoding="UTF-8" standalone="no"?>
<!-- Created with Inkscape (http://www.inkscape.org/) -->

<svg
   version="1.1"
   id="svg1"
   width="1024"
   height="1024"
   viewBox="0 0 1024 1024"
   xml:space="preserve"
   xmlns="http://www.w3.org/2000/svg"
   xmlns:svg="http://www.w3.org/2000/svg"><defs
     id="defs1" /><g
     id="g117"><path
       id="path341"
       style="display:inline;fill:#b3b3b3;stroke:none"
       d="m 548.33398,109.15039 v 1 l 6.44922,-0.92187 z m 6.44922,0.0781 0.55078,0.008 v -0.0859 z m 0.55078,0.008 v 0.91406 l -29,12 2,-3 -6,6 2,-3 c -14.31666,11.72075 -28.56711,28.33724 -33,47 h 1 l 5,-13 h 1 c 2.4863,-8.45232 8.86232,-17.86267 16,-23 l -15,23 h -1 c -4.98769,17.32023 -13.32992,33.2853 -12.74023,52 0.54245,17.21543 11.25111,33.14614 13.74023,50 h 1 l 15,50 h 1 c 0.74777,5.06323 2.25709,12.45655 5.27735,16.68164 2.52387,3.5307 7.84351,2.5487 8.57422,-1.74023 1.5172,-8.90529 1.34621,-19.62565 0.40234,-29.94141 h 0.74609 l -1,-14 v 11.45117 c -0.60618,-5.8054 -1.42478,-11.43536 -2.32812,-16.45117 -0.7755,-4.30594 -2.53111,-8.00494 -3.6582,-12 h 0.98632 l 2,-10 -2,1 v 3 h -1 v 5.95313 c -0.52943,-1.88676 -0.95462,-3.82338 -1,-5.95313 h 1 l 1,-3 v -1 c 1.80154,-1.7079 3.41217,-2.99565 5.02149,-3.97851 3.4069,-2.08071 6.80536,-2.66042 11.97851,-2.02149 v 1 h -3 v 1 c 6.24469,2.47058 9.40253,7.40748 10,14 h 0.69532 l -3.65235,14 1.95703,47 h 1 c 2.73621,3.87274 7.65388,2.99951 12,3 l 19,-70 h 1 l 3,-11 1,-16 h 1 v 3 h 1 c 1.67444,-11.12145 12.36311,-17.24798 20,-7 h 1 c -3.29015,-6.88476 -9.11084,-7.63935 -16,-6 l -5,9 c -1.47191,-4.30451 1.26405,-7.15686 5,-9 v -1 c 9.21541,-2.73008 14.92392,1.39112 16.87305,8 h -0.87305 l -5,16 2,-1 v 1 c -2.51798,5.68057 -4.84706,11.67014 -7.07031,17.78711 l -0.92969,-2.78711 v 3 h 0.85157 c -0.9781,2.69688 -1.92806,5.41631 -2.85157,8.17188 v -4.17188 l -1,6 h 0.39454 c -0.46253,1.40352 -0.94566,2.78844 -1.39454,4.20313 v -3.20313 l -1,6 h 0.13282 c -0.38826,1.25377 -0.75494,2.51938 -1.13282,3.7793 v -2.7793 l -1,6 h 0.0352 c -0.23999,0.82178 -0.50062,1.63364 -0.73633,2.45703 -0.0848,-0.49497 -0.16226,-0.99538 -0.29883,-1.45703 l -11,41 h 1 c 0.40428,-1.95342 1.13843,-4.25288 1.96875,-6.66797 -1.04301,4.62348 -2.04478,9.20345 -2.96875,13.66797 l -1,-2 h -1 c 1.63074,5.50854 7.40931,8.656 13,8 v -1 l -10,-3 v -1 c 3.03638,1.23547 6.97382,3.62891 10.33008,2.24219 0.15048,-0.0622 0.28849,-0.1678 0.43555,-0.24219 h -0.76563 c 6.10022,-12.89501 16.4842,-31.36311 27,-41 -1.00103,-7.92107 -1.25872,-13.47975 4,-20 l -3,8 h 1 l 7,-9 -2,-1 v -1 c 6.75842,1.25928 12.15327,1.6316 17,7 h 1 l -1,-3 -14,-4 c 5.40466,-2.26709 10.47902,-0.44176 14,4 4.75714,5.95958 4.20929,11.03053 2,18 h -1 l -11.4707,11.01563 -19.5293,29.98437 h -1 c -4.31078,9.11449 -7.72899,11.65473 -2,21 l 3.08008,3.08008 c -1.21213,-0.57304 -2.26256,-1.55986 -3.08008,-3.08008 l -6,-10 h -1 c -0.39276,6.79082 7.12977,12.779 11,18 10.98955,-5.47301 25.5373,-16.24891 33,-26 l -5,3 c -4.0541,5.29725 -16.5352,17.8465 -25.17578,18.64844 l 25.17578,-18.64844 9,-7 -3,4 8,-8 27,-23 34,-30 c 7.25452,-17.4243 15.35205,-34.52285 14.8711,-54 -0.2782,-11.26574 -3.95496,-21.31648 -6.8711,-32 h 1 l 5,19 h 1 c -0.40661,-9.32867 -4.21673,-18.1064 -9,-26 h -1 l 2,5 h -1 l -6,-11 3,2 -16,-16 2,3 -11,-6 v -1 l -12,-4 1,-1 11,4 v 1 l 8,4 c -6.06707,-7.32195 -17.70929,-11.24109 -27,-12 v 1 l 7,1 v 1 l -31,-3 v -1 c -10.49791,-1.08228 -14.67004,-10.93977 -21.16992,-17.98437 -7.10106,-7.69623 -16.91279,-14.57844 -26.83008,-18.01563 l 1,-1 c 11.32952,3.86413 20.84798,11.3 28.91016,20 5.74676,6.2014 9.10792,14.26202 18.08984,16 v 1 h 14 v -1 c -5.82531,0 -12.65949,0.65064 -18,-2.16406 -7.74475,-4.08185 -11.68023,-13.75868 -18.03906,-19.54688 -10.02025,-9.12103 -23.37001,-17.28192 -36.96094,-19.28906 v 1 l 11,3 -17,-3.56055 z m 159,167.91406 c -2.51917,5.49945 -6.78536,10.52527 -11.76171,15.22461 9.23264,-8.33813 17.1927,-17.74517 20.76171,-30.22461 h -1 l -7,15 z M 702.57227,292.375 c -3.04596,2.75084 -6.18747,5.41111 -9.41211,7.99023 3.29325,-2.55427 6.46739,-5.20944 9.41211,-7.99023 z m -9.41211,7.99023 c -7.23996,5.61537 -14.84313,10.75894 -20.82618,15.58789 -6.03008,4.86694 -11.88269,11.02503 -19,14.19727 l -3,4 c 11.04388,-6.90075 20.90327,-16.18366 31,-24.38867 3.86082,-3.13745 7.87037,-6.23257 11.82618,-9.39649 z m -83.82618,34.78516 c 0.9716,-2.65372 2.2292,-5.38178 3.60547,-8.11719 l -11.60547,18.11719 h 1 l 6,-10 z m 3.60547,-8.11719 10.47461,-16.35156 c -4.09397,5.15145 -7.65743,10.7523 -10.47461,16.35156 z m 10.47461,-16.35156 c 5.34513,-6.72578 11.50422,-12.65488 17.91992,-16.53125 l 1,-4 h -1 l -12.48242,12.04297 z m -7.08008,-15.53125 -25.87304,40.79883 c 3.3424,-1.94385 5.80751,-6.83744 7.84765,-9.79883 6.68262,-9.70013 17.77723,-22.34089 20.02539,-34 h -1 v 3 z m -25.87304,40.79883 c -0.11973,0.0696 -0.23929,0.13944 -0.36133,0.20117 h 0.23437 z m -6.12696,-90.79883 -2,11 h -1 l -1,7 h 1 l 7,-30 h -1 l -2,12 z m -36,78 h -1 l -1,-25 h -1 c 0,7.57549 -2.3261,24.71991 5,29 v -1 z m -33,-15 h -1 l -7,-24 h -1 l 8,27 h 1 z m -16,-50 h -1 l -5,-18 h -1 l 13,43 h 1 z M 153.90625,149.91211 c -4.06593,0.0484 -7.7403,0.92146 -9.57227,5.23828 3.36087,4.1051 4.44972,10.77631 4,16 l 2,7 c 3.59796,3.71979 5.03452,8.87507 5,14 l 4,12 3,1 -1,4 11.9336,23 25.0664,39 5.83399,6 13.16601,13.66602 8,7.33398 15,10 3,-8 c -1.22292,-3.66883 0.40162,-10.6496 3,-10 l 4,-10 -2,1 v -1 l 4,-3 c 1.32085,-12.16125 12.90769,-15.28376 11,-28 l -13,-10.71094 -25,-18.47851 -12,-8.81055 c -5.91809,-1.73432 -10.8315,-4.92848 -10.21679,-11.98437 0.57947,-6.65125 8.54737,-12.75671 14.21679,-8.01563 2.89141,-0.25794 5.54534,-0.26538 6,3 4.04354,0.0332 8.62036,1.99859 10,6 7.75665,1.39984 26.55687,12.33509 29,20 4.058,0.90973 8.70701,3.94281 10,8 3.86032,2.06585 7.23575,6.87165 11.12891,8.20313 6.72185,2.29894 16.62702,-5.98969 20.87109,-10.20313 -0.0955,-4.08899 5.01139,-16.98151 9,-18 l 2,-7 2,1 v -5 c -6.32915,-1.13916 -18.8425,-9.39417 -22,-15 -7.34526,-0.91608 -17.16858,-5.36396 -22,-11 l -4,1 -1,-3 -9,-3 -3,-1 -3,-1 -3,-1 -3,-1 -3,-1 -3,-1 -4,-1 -4,-1 -4,-1 -9,-2 -5,-1 -6,-1 c -15.19975,2.50818 -32.5043,-3 -48,-3 -2.40705,0 -4.98817,-0.26731 -7.42773,-0.23828 z m 335.76172,23.9043 0.33203,0.66797 z m -1.33399,2.33398 -1,6 h 1 z m -2,7 v 4 h 1 z m -101,3 v 1 h 15 v 1 c -20.56492,0 -35.18412,5.11878 -53,15 -10.45616,13.67229 -19.60122,23.50252 -26,40 h -1 c 3.45734,-14.93718 12.95614,-32.71455 27,-40 l 10,-7 v -1 c -13.41944,5.79149 -24.87471,18.24372 -31.67773,31 -2.87104,5.38342 -4.25446,18.43402 -10.32227,20 -1.02404,4.41559 -8.06222,6.40246 -12,8 v 1 l -12,7 12,-8 1,-2 c -10.32552,4.32165 -19.72067,14.67011 -27,23 l 2,-1 v 1 c -9.21251,5.83532 -14.13487,18.40833 -15,29 h 1 l 4,-15 h 1 l 7,-12 -6,12 h -1 c -7.33557,26.88516 -5.68354,48.30514 5,74 h -1 l -7,-18 h -1 c 1.96967,13.15044 10.06691,24.71039 19.1543,33.74023 13.36202,13.27733 26.83461,24.35206 45.8457,29.33594 8.15741,2.13849 17.62416,0.92383 26,0.92383 h 50 c 13.7221,0 27.28438,-1 41,-1 4.18991,0 12.10971,1.4671 15.39649,-1.74219 1.82336,-1.78034 1.70266,-4.91193 2.02734,-7.25781 1.68454,-12.17077 -2.8144,-13.91547 -13.42383,-17.69141 -13.79734,-4.91057 -27.74067,-10.99939 -42,-14.41015 -5.91689,-1.41528 -12.45059,1.32342 -18,-0.90821 -6.02855,-2.42431 -10.29073,-9.53797 -8.34375,-15.99023 1.93082,-6.39867 8.77619,-10.9992 15.34375,-8.87695 6.39935,2.06787 8.50517,8.44274 14.01368,11.65234 14.61851,8.51769 37.42812,16.6778 53.9707,20.26563 5.62722,1.22046 14.32343,-10.76679 12.71289,-16.04102 -1.56399,-5.12182 -8.88596,-10.35987 -12.69727,-13.91016 -5.7246,-5.33258 -11.46017,-10.54999 -17,-16.08984 -2.97736,-2.97737 -5.82735,-5.05983 -8.69336,-6.77344 2.24817,1.5451 4.2166,3.60876 5.69336,6.77344 l -23,-12 1,-1 c 4.30032,1.65601 8.57532,2.5134 12.35352,4.07031 -4.69813,-2.30119 -9.60914,-4.06044 -15.35352,-7.07031 l 2,3 c -4.55901,-3.80536 -5.87558,-8.19111 -6,-14 h 1 l 5,-8 v -1 l 7,-1 h 3 l -0.90039,-0.30078 4.90039,-0.69922 v 1 h -3 v 1 c 3.21619,0.56756 7.47559,0.23791 8,4 l 3,2 -2,-1 v 1 l 3,8 2,-2 c 3.21137,12.30211 21.85746,27.85542 32,35 l -2,-3 c 5.85162,4.11811 11.3588,8.93696 16.28907,6.71094 l -3.28907,3.28906 v 1 c 6.27188,-2.98432 11.1369,-6.57954 10,-14 h -1 v 3 h 1 l -2.14648,2.14649 c 0.38655,-0.64655 0.76962,-1.35556 1.14648,-2.14649 h -1 l -3,-13 h -1 c -2.14999,-9.29334 -4.74585,-18.99266 -7.6289,-28.78125 3.54364,9.46588 7.20905,19.16731 8.6289,28.78125 h 1 l 1,6 h 1 c -2.11278,-14.30578 -8.75479,-29.26246 -13.33398,-43 -9.91698,-29.75095 -15.17539,-66.19717 -44.66602,-83 l 2,3 -20,-10 2,-2 c -13.50779,-5.21062 -26.58924,-7 -41,-7 z m 39,106 -4,8 h -1 l 2,10 h 1 c -2.69762,-8.52776 0.23466,-12.00154 5,-19 z m 13.35352,26.07031 c 1.32932,0.65112 2.64477,1.37398 3.95312,2.15625 -1.23936,-0.85178 -2.54955,-1.57787 -3.95312,-2.15625 z M 378.33398,187.15039 v 1 h 6 z m 107,1 -1,14 h 1 z m -79.23828,0.0762 c 6.1373,0.19088 13.10422,3.25381 18.23828,4.92383 v 1 l -24,-5 c 1.76302,-0.73288 3.71596,-0.98745 5.76172,-0.92383 z m 53.9043,0.25782 0.66797,0.33203 z m -89.66602,0.66601 v 1 l 7,-1 z M 368,190.48438 l 0.66797,0.33203 z m -5.66602,1.66601 v 1 l 4,-1 z m -2,1 1,1 z m -2,1 1,1 z m 69,0 v 1 l 9,4 v -1 z m 10,5 v 1 l 4,2 v -1 z m 46,5 v 7 h 1 z m -38,1 c 19.4776,13.31831 26.87877,35.66373 33.45704,57.78516 -4.48439,-12.47546 -9.36689,-24.61885 -14.50782,-35.78516 -3.89513,-8.46044 -16.76981,-14.02485 -18.94922,-22 z m 284,6 v 6 h 1 z m -245,2 v 3 h 1 z m 1,4 2,9 h 1 z m 245,4 v 5 h 1 z m -121.02734,5.30273 c 0.86945,3.17388 0.89488,6.89109 0.0273,10.69727 h -1 z m -120.97266,0.69727 3,12 h 1 z m 241,2 v 8 h 1 z m -1,9 v 5 h 1 z m -126,5 1,1 z m 125,1 -2,11 h 1 z m -184,3 7,10 h 1 l -1,3.83203 v -3.83203 h -1 l -7,-9 z M 533,247.48438 l 0.66797,0.33203 z m -221.66602,0.66601 1,1 z m 289,0 1,1 z m -291,1 1,1 z m -2,1 1,1 z m -2,1 1,1 z m 294.33399,0.66602 0.33203,0.66797 z m -1,3 0.33203,0.66797 z m 126,2 0.33203,0.66797 z m -1,3 0.33203,0.66797 z m -127,2 0.33203,0.66797 z m -71.33399,1.33398 4,15 h 1 z m 23.33399,0.66602 0.33203,0.66797 z m 30.66601,0.33398 -4,17 h 1 z m -32,2 1,1 z m -1,2 -2,24 h 1 z m 95,12 1,1 z m -67,2 -1,6 h 1 z m 68,1 v 6 h 1 z m -26,1 v 6 h 1 z m 139,0 v 1 l 10.04688,-0.62695 z m 10.04688,0.37305 5.95312,0.21875 v -0.5918 z m 5.95312,0.21875 v 0.4082 l -38,8 v -1 l 8,-3 v -1 c -6.03014,1.43298 -11.17291,4.04438 -15,9 h 2 l -9,8 c -7.88085,10.70623 -21.63831,18.54518 -32,26.80078 -19.60471,15.61993 -40.7892,36.73829 -63,48.19922 l 35,-28.65039 60,-46.34961 2,-3 c -26.74704,17.69273 -51.55263,40.04482 -77,59.65234 -5.06843,3.9053 -17.88403,11.14908 -21.86328,18.36915 3.03818,0.64258 6.22984,0.7149 9.51758,0.39648 l -10.58008,2.56445 c -0.11753,0.67733 -0.17026,1.35184 -0.0742,2.01758 l 33,-9 v -1 l -5.71679,1.38672 c 2.25723,-0.76419 4.46721,-1.53421 6.71679,-2.35938 v 0.97266 l 6,-1 h -5.92382 c 7.99807,-2.93469 15.89684,-5.96608 22.92382,-7 l 14,-10 v -1 h 5 l -5,1 c -3.58068,5.07983 -7.61517,9.28888 -14,10 v 1 l -16,4 v 1 l 21.91016,-6.2793 18.08984,-10.7207 h 6 l -2,1 v 1 c 3.88373,0.3518 4.13691,2.51043 5,6 h 1 l -1,-4 h 1 c 3.64132,9.45565 1.94972,15.8768 -2.80273,19.57031 1.92383,-1.61928 3.17403,-3.78293 2.80273,-6.57031 -2.67272,5.13733 -6.13775,8.3471 -12,9 v 1 c 0.58285,-0.0319 1.19712,-0.11591 1.81641,-0.21875 -3.48993,0.72473 -7.51248,0.79831 -11.81641,0.21875 v -0.15625 l -8,0.75 v 0.40625 l -46,11 v 1 l -11,2 11,-3 v -1 h 3 v -1 l -15,3 v 15 h 8 v -1 h -7 v -1 c 22.57927,0.0623 45.4675,3.53821 68,5.08984 9.65581,0.66491 19.6963,3.30105 29,-0.0898 v -1 c 7.10858,-0.89759 11.24629,-0.7116 17,4 l -7,-3 v 1 c 6.88666,3.58484 8.93726,8.51691 9,16 h 1 l -1,-11 h 1 v 11 3 l -2,-2 c -4.25347,5.72435 -9.11212,7.26416 -16,7 v 1 c 7.13275,0.59051 11.67201,-1.22119 17,-6 -6.22869,8.62963 -15.56048,10.05156 -23,2 -2.75103,-1.01022 -5.60583,-1.86856 -8.54101,-2.60156 l 8.54101,1.60156 v 1 l 2,1 c -4.67559,-6.15551 -10.82489,-5.99921 -18,-6 v 0.83789 c -1.88057,-0.33356 -3.8072,-0.57835 -5.72851,-0.83789 h 4.72851 l -10,-1 v 0.30469 c -1.22905,-0.12752 -2.47909,-0.19852 -3.71679,-0.30469 h 1.71679 l -10,-1 v 0.40039 c -2.80625,-0.1558 -5.60793,-0.29526 -8.40429,-0.40039 h 7.40429 l -10,-1 v 0.91016 c -8.288,-0.28616 -16.43731,-0.47921 -24,-1 -11.45921,-0.78912 -22.52691,-4.2724 -25,10.08984 h -1 v -3 h -1 c 0.25904,7.81108 6.9394,10.1645 13,13.80078 12.98992,7.79375 26.08675,17.20387 40,23.19922 v -1 l -16,-9 v -1 l -26,-14.42383 -9,-7.57617 35,21 v 1 l 22,12 v 1 l -5,-2 v 1 l 19.02149,11.06836 c -4.79831,-3.17889 -9.51362,-6.30887 -14.02149,-9.06836 l 1,-1 48,28 v 1 h 1 l 6,3 v 1 l -5,-2 v 1 c 19.37516,11.3087 45.75675,6.74341 67,4 v -1 l 9,-2 v 1 h -2 v 1 l 4,-1 -2,-2 12,-5 v -1 c 10.00298,-4.98278 20.18629,-14.88343 25,-25 h 1 l 3,-6 c 1.74014,-7.52167 3.31558,-14.79224 4.12305,-22.11523 l -2.12305,19.11523 h 1 c 3.17407,-9.92632 7.21735,-25.94978 3,-36 l -1.83593,16.52344 c 0.7842,-7.34655 0.78394,-14.75087 -0.62696,-22.52344 -1.57299,-8.6654 -8.48192,-18.30531 -8.02343,-27 0.42225,-8.00652 6.15283,-16.05238 7.82031,-24 3.81817,-18.19841 0.66339,-34.17116 -6.33399,-51 h -1 l -5,-9 6,9 h 1 l 7,21 h 1 c -0.77446,-16.9481 -14.06458,-34.28328 -28,-43 l 2,3 -18,-9 v -1 l -5,-1 1,-1 4,1 v 1 l 15,7 c -7.83184,-9.13622 -26.25275,-14.48798 -38,-15 v 1 l 18,4 v 1 l -29,-5 v -1 h 10 z m 73,184.4082 -2,6 h -1 l -7,11 c 6.08924,-4.49529 9.92494,-11.79652 12,-19 h -1 v 2 z m -29,32 -1,2 13,-10 z m -21,9 v 1 l -13,2 v 1 l 16,-3 v -1 z m -69,-7 c -2.38502,-0.75475 -4.7725,-1.70289 -7.1582,-2.74609 l 8.1582,4.74609 z m -7.1582,-2.74609 -27.82031,-16.18555 c 8.9962,5.96 18.37092,12.05358 27.82031,16.18555 z m 4.1582,-86.25391 v 1 l -3,1 v 1 l 6,-2 v -1 z m -40,-30.40625 v -0.59375 l -5.58789,1.11719 z m -5.58789,0.52344 -9.41211,0.88281 v 1 z m 5.58789,-1.11719 h 4 v -1 z m 8,-0.15625 4.11914,-0.38672 -4.11914,-0.45703 z m 4.11914,-0.38672 4.88086,0.54297 v -1 z m -73.04492,0.52539 c 0.0399,-0.23007 0.0997,-0.46044 0.16211,-0.6914 l -0.23633,0.70898 z m 0.16211,-0.6914 0.35742,-1.07227 c -0.14678,0.35854 -0.26097,0.71518 -0.35742,1.07227 z m 0.35742,-1.07227 c 0.16326,-0.39878 0.32279,-0.79776 0.54297,-1.19726 -0.0449,-0.01 -0.0919,-0.0117 -0.13672,-0.0215 z m 127.40625,-96.21875 v 1 h 5 z m -4,1 v 1 h 3 z m -563,1 2,2 z M 743,287.48438 l 0.66797,0.33203 z m -170.66602,1.66601 -2,10 h 1 z m 269,0 1,1 z m -402,1.33399 0.33399,0.33203 c -0.4935,0.16449 -1.10751,-0.33204 -0.33399,-0.33203 z m 92,4.66601 v 17 h 1 z m -84,2 1,6 h -1 z m 122,3 -1,6 h 1 z m -306,5 v 5 h 1 z m 304,2 -1,6 h 1 z m -51.66601,5.66602 0.33203,0.66797 z m -307.33399,0.33398 2,2 z m 54,1 v 12 h 1 z m 303,0 -1,6 h 1 z m -33,1 v 9 h 1 z m -15.66601,0.66602 0.33203,0.66797 z m 1,3 0.33203,0.66797 z m 1,3 0.33203,0.66797 z m 45,0 0.33203,0.66797 z m -44,3 0.33203,0.66797 z m 43,0 0.33203,0.66797 z m -31.33399,1.33398 -5,2 v 1 c 2.48438,-0.11829 5.48779,-0.0411 5,-3 z m -11,1 1,1 z m 31,0 v 1 h 8 z m 26,0 v 3 h 1 z m -314,1 v 7 h 1 z m 259,1 v 1 h 3 z m -21.66601,0.66602 0.33203,0.66797 z m -236.33399,6.33398 v 4 h 1 z m 1,5 v 3 h 1 z m 585,3 v 23 h 1 z m -304.91601,1.99805 c -2.02033,0.008 -4.05047,0.15013 -6.08399,0.43164 -10.23937,1.41748 -20.39606,4.82679 -29,10.66406 -51.99469,35.27536 -16.63312,114.36645 43,106.61719 28.07341,-3.64813 51.49829,-30.13858 50.94532,-58.71094 -0.57089,-29.49814 -28.55634,-59.12516 -58.86133,-59.00195 z m 326.91601,9.00195 1,1 z M 704,356.48438 l 0.66797,0.33203 z m -427.66602,6.66601 8,14 c -3.69542,-3.06171 -8.73513,-8.96045 -8,-14 z m 436.33399,2.66602 0.33203,0.66797 z m 136.66601,2.33398 v 5 h 1 z M 713.66797,370.81641 714,371.48438 Z m 134.66601,3.33398 v 3 h 1 z m -0.66601,4.66602 0.33203,0.66797 z m -1.33399,2.33398 -1,4 h 1 z m -183,5 v 1 h 3 z m 181,0 -1,4 h 1 z m -185,1 v 1 h 3 z m -1,2 -10,1 v 1 z m 184,2 -1,4 h 1 z m -202,1 v 1 l 7,-1 z m 200,4 v 3 h 1 z m 22,0 1,1 z m -21,4 4,12 h 1 z m -579,10 -9,2 -4,1 c -8.20356,5.5697 -26.35125,13.71142 -36,15 -1.07598,4.63959 -11.55021,9.66571 -16,11 l -12.28515,10.99609 -21.71485,23.00391 -3,4 -17.51953,29.42383 -7.48047,12.57617 c 0.59883,3.59295 -1.55776,10.61059 -4,10 l -4,12 -1,3 1,3 -2,-1 v 1 l -2,6 2,5 h 5 v 1 h -4 v 1 c 10.83042,0 28.86238,-3.03008 38,4 l 5,1 5,1 5,1 c 6.41509,-1.19873 14.46658,1.74512 20,5 l 5,1 4,1 6,1 6,1 c 11.9887,-2.12641 30.96419,-1.98609 43,0 l 5,-1 8,-2 9,-4 c -5.86617,-8.57909 -17.38331,-18.68763 -17,-30 l -2,1 1,-3 -2,-7 -1,-4 c -5.1503,-6.69573 -2.63328,-24.45912 -3,-33 l -16,3 c -8.26125,9.63726 -26.11182,14.67023 -37,21.5293 -5.46793,3.44451 -11.65701,9.73596 -18,11.16797 -8.39136,1.89439 -14.67331,-2.3445 -16,-10.69727 h 1 v 2 h 1 l 3,-7 c 2.2446,-7.92663 21.03827,-19.93671 29,-21 l 5,-3 c 1.136,-4.89831 20.79528,-12.99646 26,-13 -1e-5,-3.20667 8.94233,-5.3219 12,-5 l 1,-3 4,1 -1,-2 3,1 7,-2 3,-1 5,-2 c 1.12882,-5.85393 4.40303,-10.30799 9,-14 1.77143,-6.00414 9.79786,-12.68427 15,-16 1.40122,-4.68407 6.81215,-6.21393 11,-8 l -10,-7.13281 -12,-7.4375 z m -137,148 -3,-1 v 1 z m 508,-147 v 1 h 10 z m 12,1 v 1 h 10 z m 12,1 v 1 h 11 z m 69,0 v 1 h 5 z m 120.33399,0.66602 0.33203,0.66797 z m -176.33399,0.33398 v 1 h 11 z m 13,1 v 1 h 11 z m 13,1 v 1 h 11 z m 151,0 2,13 h 1 z m -138,1 v 1 h 9 z m -83.76367,7.44922 c -3.25356,0.0546 -5.14432,2.96305 -6.23633,6.55078 h 1 l 8,-6 c -1.01563,-0.39293 -1.93433,-0.56469 -2.76367,-0.55078 z m 5.76367,0.55078 v 1 h 11 z m -195.42773,0.35156 c -10.91012,-0.0337 -22.95491,1.64844 -31.57227,1.64844 v 1 h 49 c -4.74441,-1.99088 -10.88166,-2.62819 -17.42773,-2.64844 z m -258.57227,0.64844 -1,2 z m 467,0 v 1 h 10 z m -190,1 v 1 l 13,2 -36,-1 -90,3 v 1 c -19.0716,4.51947 -33.90254,18.56282 -45,34 -0.40405,-4.86547 4.85706,-9.672 8.03907,-13 5.46997,-5.72091 12.51148,-11.86413 20.20507,-16.23633 -18.33365,9.03962 -33.36393,24.69012 -38.24414,45.23633 h 1 l 7,-16 h 1 c -8.47908,20.36594 -11.81096,36.75771 -9,59 h -0.17578 l 0.35938,2.44922 0.8164,-2.44922 v 3 h 1 l 4,11 h 1 l 6,10 -4,-3 12,11 -8,-6 c 9.57925,13.48626 27.61411,16.30702 28,35 h 1 v -9 h -1 l -19,-20 c 7.3996,5.86815 18.171,9.90333 20,20 h 1 c 0.0376,13.65392 4.86784,24.67304 10,37 h -1 l -8,-21 h -1 c 2.3439,17.32114 14.96734,33.62074 30,42 l -2,-3 c -6.20644,-2.76618 -16.56799,-10.68678 -17,-18 l 17,17 v 1 c 11.14764,5.86541 22.16677,10.96466 35,11 v 1 h -9 v 1 h 10 l 13,-1 v 1 h 10 v -1 h -8 v -1 c 13.2907,-0.10999 24.07381,-6.03467 36,-11 v -1 l 34,-31 v -1 c 2.99706,-5.27149 5.59267,-10.91857 7.91211,-16.80078 l -1.91211,6.80078 h 1 c 1.8673,-8.07147 9.18806,-20.82036 8.4043,-29.66601 0.31264,-1.11246 0.63791,-2.21663 0.94141,-3.33399 h 0.65429 l 1.63477,-8.7207 c 1.00616,-3.96491 1.99856,-7.91025 2.96094,-11.85352 l -0.59571,3.57422 h 1 v -5.22656 c 2.33588,-9.57269 4.6439,-18.98764 7.2793,-27.77344 2.31586,-7.72045 12.01287,-26.37342 1.7207,-30 v -1 c -8.68105,-0.44275 -13.31867,8.0102 -18.42187,14 -13.17077,15.45897 -29.51481,31.33766 -39.57813,49 -0.48511,-5.84154 7.21544,-12.71417 10.75,-17 10.19424,-12.36089 20.28025,-24.80372 30.67188,-37 4.79012,-5.62194 8.48731,-11.73071 16.57812,-10 v 1 l 8,3 v -1 c -3.64199,-2.11768 -9.58227,-6.11999 -14,-4.64648 -6.09523,2.03307 -11.12879,10.91077 -15.08007,15.64648 l -28.16602,34 c -5.36726,6.44323 -11.5416,12.21595 -11.75391,21 h 1 v -5 h 1 l -2,11 -2,-2 -4,6 5,-4 c -6.92531,9.59362 -21.89871,9.02941 -26,-3 h -1 l 1,-6 1,-6 h 1 l -1,4 h 1 c 1.66348,-6.8233 6.39482,-7.42468 13,-8 v -1 l -8,1 v -1 c 4.62879,-0.89459 11.72971,-0.2472 12,-6 0.45673,-0.0786 0.87988,-0.25524 1.31446,-0.39844 l 28.07422,-35.60156 20.33984,-23.68359 c 0.21201,-5.78708 -7.89248,-10.27917 -12.72852,-8.31641 v 1 c 5.78357,-1.2154 8.84608,2.52906 12,7 -9.91079,-9.66466 -15.26997,-2.62365 -26,2 v 1 l -30.98242,18.37891 -9.01758,10.62109 v 1 c -6.91631,2.66345 -11.89825,3.58825 -19,1 v -1 l 5,1 v -1 l -8,-7 h -1 l 1,4 h -1 c -2.71388,-7.44638 -1.89296,-12.24488 0.86524,-15.59766 l -0.86524,2.59766 h 1 v -2.75195 c 2.11702,-2.48216 5.31015,-4.16081 9,-5.47461 v 0.22656 h 5 l -3.60546,-0.7207 c 5.71327,-1.85772 12.30184,-3.07474 17.60546,-5.2793 v -1 l 27,-15.84961 12.2129,-8.47656 -0.2129,-11.67383 2.35547,11.81445 -10.35547,7.98438 -31,17.20117 v 1 l -13,5 v 1 c 19.65474,-2.94617 39.81512,-21.46876 57,-31 l -5,-16 z m -31,69 c 5.7107,-13.89709 25.7322,-25.8031 40,-30 v -1 l 6,-3 v -1 c -13.23032,5.70104 -28.57398,14.26466 -39.89257,23.20899 -7.47125,5.90405 -7.90645,13.27795 -19.10743,13.79101 v 1 z M 490.0625,464.4668 c -3.8e-4,0.0105 4.4e-4,0.0208 0,0.0312 l 0.27148,-0.34766 z m 0,0.0312 -27.92578,35.65234 -20.44727,23.58984 c 5.4068,-1.8079 9.17511,-8.27061 12.64453,-12.58984 l 25,-31 c 3.25354,-4.06677 8.85255,-8.97321 10.45704,-14 0.17902,-0.56088 0.24879,-1.10987 0.27148,-1.65234 z m -48.37305,59.24218 c -0.0135,0.005 -0.0275,0.007 -0.041,0.0117 l -0.31446,0.39844 z m -20.35547,17.41016 v 6 h 1 c 1.72818,4.97522 5.06236,7.42224 10,9 v -1 c -5.90068,-3.06342 -9.39303,-7.31031 -10,-14 z m 57,60 c -4.75527,12.2954 -21.40849,27.97925 -34,32 v 1 l -11,5 v 1 c 18.18505,-5.23876 38.91771,-23.0104 47,-40 z m -186,-61 -2,-1 2,4 h 1 z m -5,-11 h -0.73437 l 0.73437,5 h 1 z m -0.73437,0 -0.082,-0.55078 -0.1836,0.55078 z m -0.44141,-3 -1.72656,-11.74219 0.90234,11.74219 z m -1.72656,-11.74219 -1.09766,-14.25781 h -1 z m 40.14648,-76.49414 c 4.32666,-2.1333 8.82889,-3.8993 13.43555,-5.26953 -4.593,0.90088 -9.11123,2.81207 -13.43555,5.26953 z m 13.43555,-5.26953 c 1.1047,-0.21667 2.21128,-0.3967 3.32031,-0.49414 V 431.748 c -1.11014,0.28214 -2.21981,0.56914 -3.32031,0.89648 z m 3.32031,-0.89648 c 1.07396,-0.27294 2.14779,-0.52971 3.22852,-0.75977 l -3.22852,0.16211 z m 3.22852,-0.75977 16.77148,-0.83789 v -1 c -5.56669,0 -11.20411,0.65277 -16.77148,1.83789 z m 311.77148,-3.83789 v 1 h 10 z m -290,1 v 1 h 29 z m 252.33399,4.66602 0.33203,0.66797 z m 103.66601,5.33398 1,1 z m -574,18 -1,2 z m 458.52149,0.48047 c -3.55277,-0.23782 -6.86426,3.09571 -5.75977,7.51953 1.15826,4.6394 5.58369,9.13012 8.26368,13 7.52642,10.86815 19.0655,35.7893 32.9746,38 v -1 l -5,-1 v -1 c -11.76878,-9.00689 -20.84956,-25.70442 -28.99609,-38 -2.77021,-4.18109 -8.29705,-10.16309 -5.00391,-15 v -1 h 7 c -1.08323,-0.9651 -2.29425,-1.44026 -3.47851,-1.51953 z m -3.52149,2.51953 8.66602,17 25.33398,36 c 7.19824,1.67084 10.04652,4.34431 13,11 h 1 l -1,-4 -2,-2 h 2 v 2 h 1 l 0.92383,6 h -0.92383 c -0.43316,9.45781 -5.45911,14.77563 -15,15 v 1 c 5.77594,-0.0516 9.50148,-1.31623 14,-5 -5.03679,6.41326 -10.58673,5.93689 -18,5 v -1 l 2,-1 c -7.64782,-1.87549 -9.14435,-6.90632 -11,-14 h -1 l -23.66601,-37 -8.33399,-15 c 11.26995,14.66185 27.399,34.30641 33,52 l 2,1 c -8.36217,-19.97941 -23.45161,-38.48 -36,-56 l -4,1 v 1 l 4,-1 -14,7 v -1 l 9,-4 v -1 c -8.97124,2.58447 -13.99255,5.40394 -14,15 h 1 l 1,-8 h 1 c -4.15526,18.0825 4.67988,42.73757 7,61 h -0.5 l 5.5,11 h 0.80079 l 0.16406,1.24023 c -0.55883,5.56735 -3.01379,10.41971 -6.39453,13.33008 l -0.57032,-0.57031 -3,1 v 1 l 2.58985,-0.64844 c -4.7924,3.40995 -11.10494,3.03018 -16.58985,-4.35156 h -1 c -2.21239,-6.97948 -1.739,-11.27675 1,-18 h 1 l -6.57617,-41 -1.42383,-18 9,59 h -1 l -3,13 h 1 l 3.72461,-16 -8.72461,-58 c -4.98613,0.92566 -14.65551,-0.79778 -18.49023,2.60352 -2.5893,2.29664 -4.3525,6.82565 -5.71289,11.78711 l -0.79688,-2.39063 v 3 h 0.62891 c -1.64017,6.1811 -2.6698,12.93287 -3.74414,17 -3.1115,11.77932 -7.10021,23.72094 -10.83594,35.72852 l 2.95117,-16.72852 -4,17 h 0.9629 c -0.67039,2.15735 -1.3169,4.31297 -1.9629,6.47461 v -5.47461 l -1,6 h 0.84375 c -0.94711,3.18233 -1.84317,6.36767 -2.69921,9.55664 l 0.85546,-8.55664 -2,10 h 0.75977 c -2.01399,7.66049 -3.72728,15.33271 -4.75977,23 h -1 l -1,9 h -0.90429 l -0.0801,0.41406 c 0.13595,18.81402 5.87137,34.50116 12.98437,51.58594 h -1 l -9,-23 h -1 c 1.62865,11.02766 6.39617,19.25342 12.5586,26.72852 -0.48659,-1.17802 -0.73813,-2.41899 -0.5586,-3.72852 l 6.83204,10.73438 c 2.63387,2.73921 5.3624,5.45413 8.16796,8.26562 l -8,-6 c 8.86243,12.47704 27.61263,23.65649 43,25 v -1 l -12,-3 v -1 c -6.57885,-1.17273 -20.20068,-7.03663 -22,-14 l 22,13 v 1 c 29.23387,6.76317 48.4169,4.48394 76,-7 v -1 l 14,-11 c 3.30596,-2.94439 7.19733,-4.55939 11.38477,-5.46094 l -5.38477,0.46094 c 6.23841,-6.37035 26.2527,-4 35,-4 v 1 l -16.23046,1.39063 c 5.56931,-0.068 11.15694,0.0328 16.23046,-0.82618 29.81003,-5.04687 60.33394,-30.46951 61,-62.56445 h -1 v 6 h -1 c -2.38567,27.32199 -31.28029,52.66711 -58,55 v -1 c 18.24047,-2.69391 37.38539,-15.69136 47.30079,-31 4.71275,-7.27624 6.65808,-15.5655 10.69921,-23 v -33 h -1 c -1.37438,-16.80382 -13.43964,-32.7248 -26,-43.07617 -27.36062,-22.54862 -61.80703,-38.44125 -92,-56.92383 l 1,-1 c 12.1347,5.67223 23.5118,13.7068 35,20.59961 30.3693,18.22117 81.19301,38.93992 83,80.40039 h 1 v 7 h 1 c -0.40857,-49.3622 -57.14425,-71.68618 -93,-93.19922 -14.31541,-8.5891 -28.66767,-19.19386 -44,-25.80078 v 1 l 16,9 v 1 c -7.79912,-3.36072 -15.0921,-10.78565 -24,-10 z m 67.76954,201.39063 c -4.57398,0.0558 -9.13252,0.23293 -13.38477,1.14843 z m -24.76954,6.60937 -14,12 v 1 l -10,5 v 1 c 10.10595,-2.97272 20.97731,-11.47364 27,-20 z m -121.16796,-3.26562 c -2.20279,-2.29089 -4.30887,-4.62281 -6.27344,-7.00586 1.20853,2.92584 4.02476,5.41753 6.4414,7.27148 z M 504.34961,601.5644 c -10e-4,-0.14045 -0.0152,-0.27326 -0.0156,-0.41406 h -1 v 5.75 z m -1.01563,5.33594 -1,5.25 h 1 z m 1,-5.75 h 0.0957 l 0.57031,-3 z m 0.66602,-3 1.33398,-6 5,-22 h -1 z m 57.33398,-36 8,5 v -1 l -8,-8 h -1 z m 17.5,-22 -0.83398,-1.66601 0.33398,1.66601 z M 579,538.48438 l -0.66602,-3.33399 h -1 z m -103.66602,-81.33399 -5,3 v 1 l 6,-3 z m 99,21.33399 c 0.77338,0 0.15949,0.49658 -0.33398,0.33203 z m -58,1.66601 -4,16 h 1 z m -117,2 v 6 h 1 z m 139,0 v 1 h 13 z M 285.66797,484.81641 286,485.48438 Z m 248.66601,1.33398 1,1 z m -250,1 v 3 h 1 z m 287,2 v 6 h 1 z m -37.66601,0.66602 0.33203,0.66797 z m -272.33399,0.33398 1,1 z m 1,2 1,1 z m 21,0 v 6 h 1 z m 249.33399,0.66602 0.33203,0.66797 z m 39.66601,3.33398 v 7 h 1 z m -61,1 -2,9 h 1 z m 339,1 -1,2 z M 530.66797,499.81641 531,500.48438 Z m -1.33399,2.33398 v 3 h 1 z m 283,1 1,1 z m -239,1 1,14 h 1 z m 237,0 1,1 z m -2,1 1,1 z m -2,1 1,1 z M 528.66797,506.81641 529,507.48438 Z m 204.66601,0.33398 7,3 v 1 l -8,-3 z M 508.66797,507.81641 509,508.48438 Z m 18.66601,1.33398 v 3 h 1 z M 799,509.48438 l 0.66797,0.33203 z m -291.66602,0.66601 v 3 h 1 z M 742,512.48438 l 0.66797,0.33203 z m -215.66602,0.66601 -1,6 h 1 z m 220,0 v 1 h 4 z m 5,1 v 1 h 13 z m 18,0 v 1 h 11 z M 506.66797,514.81641 507,515.48438 Z m 136.66601,0.33398 v 1 l 3,1 z m -138,2 -1,6 h 1 z m 70,2 v 6 h 1 z m -51,1 -1,6 h 1 z m -21,4 -2,9 h 1 z m 149,1.5 1,6.5 h -1 z m -212,0.5 -1,1 z m 82,1 -1,6 h 1 z m 54,0 v 6 h 1 z m 49,0 1,6 h 1 z m 176,4 1,1 z m -374,0.33399 c 0.77332,0 0.15961,0.49658 -0.33398,0.33203 z m 200,2.66601 1,1 z m -339,1 1,1 z m 1,2 1,1 z m 470,1 3,11 3,1 -1,4 2,7 1,4 4.31641,24.78711 5.68359,7.21289 c 7.28473,1.3147 23.56459,10.80079 26,18 4.6933,1.32947 9.08405,6.35327 12.70899,9.625 7.46508,6.73753 16.08729,12.91468 22.86523,20.41406 4.33667,4.79827 8.82136,13.80933 15.42578,14.96094 1.82898,4.01709 4.50673,9.12628 9,10 l 6,7 1,5 c 3.00501,0.95971 4.10823,3.45405 5.91211,6.00195 2.50098,3.53254 5.8338,7.38111 5.68946,11.99805 -0.49128,15.71653 -20.27527,10.43529 -23.60157,-1 l -1,-1 -2,1 -11,-17 -12,-12 -9,-7 -19,-20 -9,-8 -10,-8 -19,-10 -16.02539,28.9668 -8.97461,11.0332 -29,17 7,16 26,23 v 3 l 21,12.4668 13,6.5332 4,-1 1,3 8,3 7,2 8,2 3,1 5,1 4,1 11,2 c 5.70587,-1.11347 15.30122,-0.57825 20,3 l 7,1 c 8.61987,-1.42237 26.99104,-0.51537 34,5 l 5,1 5,1 4,1 5,1 8,2 13,2 1,-4 -2,-9 -1,-4 -1,-4 -3,-11 -2,-7 -2,1 1,-3 -2,-6 -1,-3 -4,-12 -3,-1 1,-4 -3,-1 1,-4 c -3.26641,0 -7.27795,-12.47925 -7,-16 -6.29918,-5.39989 -17.50171,-25.66182 -18,-34 l -14.25976,-19 -35.74024,-41 -16,-15 c -5.08031,-0.91376 -17.29419,-8.07056 -19,-13 l -5,-3 c -9.24193,-1.15271 -24.41394,-8.39875 -31,-15 h -1 l 1,2 z m -128,1.33399 c 0.77338,0 0.15949,0.49658 -0.33398,0.33203 z m -338,4.66601 2,2 z m 291,1 h 1 l 0.66602,5 z M 447.66797,545.81641 448,546.48438 Z M 833,551.48438 l 0.66797,0.33203 z m -392.66602,2.66601 1,1 z M 438,555.48438 l 0.66797,0.33203 z m 148.81836,0.79492 0.51562,3.87109 h -1 z m 256.51562,4.87109 2,2 z m -272,6 v 1 h 4 z m 177,11 v 15 h 1 z m -630,3 1,1 z m 210,8 v 4 h 1 z m 155.33399,2.66602 0.33203,0.66797 z m 390.66601,0.33398 1,1 z m -392,2 1,1 z m -1,2 1,1 z m -1,2 1,1 z m 23,15 v 7 h 1 z m 1,8 v 4 h 1 z m 1,5 v 3 h 1 z m -24.16992,7.4082 c -4.10215,0.2869 -8.44161,6.28045 -10.83008,8.55079 -6.85796,6.51891 -21.12202,17.36767 -31,17.04101 l -1,3 -4,-1 1,2 -3,-1 -3,1 -5,2 -3,7 -1,3 -3,11 -1,5 -1,5 -1,6 -1,27 1,51 2,12 1,5 6,16 2,-2 3,1 12,-4 c 3e-5,-3.18762 5.1988,-3.22119 8,-3 l 1,-3 4,1 1,-3 4,1 17,-8 c 0.93234,-4.0202 5.27537,-4.70185 9,-5 3.14874,-5.7401 10.8188,-8.34161 16,-12.15625 11.71191,-8.62279 26.16096,-19.05299 32,-32.84375 h 3 c 1.15216,-6.65667 10.06129,-20.6391 16,-24 l 2,-10 -4,-3 c -4.97679,0.0368 -9.47662,-1.55353 -12,-6 l -5,-3 -5,-3 -20,-16 -4,6 v 1 l 2,-1 v 1 l -3,2 c -0.0232,5.14367 -2.37704,10.38537 -6,14 -0.14224,11.3059 -9.63199,25.4477 -15.26562,35 -2.34946,3.9837 -3.62455,8.63171 -7.73438,11 -0.97603,8.98693 -19.37147,35.95549 -27.32812,17.95703 -2.36652,-5.35326 1.00952,-11.24713 3.30078,-15.96094 4.85666,-9.99163 11.12079,-19.11634 15.91211,-29.16601 2.75293,-5.77417 3.16364,-11.22724 8.11523,-15.83008 v -1 l -2,1 v -1 l 6,-9 -2,1 v -1 l 4,-4 -1,-4 3,-1 4,-10 v -1 l -2,1 v -1 l 2,-6 2,1 2,-25 c -2.63576,-2.43543 -3.35595,-9.15271 -6.43359,-10.33789 -0.56996,-0.21948 -1.15031,-0.29489 -1.73633,-0.25391 z m -154.83008,1.5918 2,2 z m 34,1 1,1 z m 2,1 1,1 z m 2,1 3,2 v -1 z m 4,2 1,1 z m 63,0 1,1 z M 371,641.48438 l 0.66797,0.33203 z m 58,0 0.66797,0.33203 z m -55.66602,0.66601 1,1 z M 426,642.48438 l 0.66797,0.33203 z m -50.66602,0.66601 v 1 h 3 z M 423,643.48438 l 0.66797,0.33203 z m -43.66602,0.66601 v 1 h 3 z m 38,0 v 1 h 4 z m 74,9 1,1 z m 377,23 -1,1 z m -209,7 -5,6 z m -42,4 v 1 l 4,-1 z M 615,688.48438 l 0.66797,0.33203 z m -3,1 0.66797,0.33203 z m -4.66602,0.66601 v 1 h 3 z m -38,1 v 1 l 31,1 z m 32,0 v 1 h 5 z m 118,31 1,1 z m -174,40 -1,2 z m -7,8 -7,8 z m -16,15 -1,2 z" /></g></svg>
